<mxfile host="app.diagrams.net" modified="2022-03-28T02:45:15.863Z" agent="5.0 (Windows NT 10.0; Win64; x64) AppleWebKit/537.36 (KHTML, like Gecko) Chrome/99.0.4844.88 Safari/537.36" etag="_GrcuCFoTT9AoXqKrGzW" version="16.6.3" type="github">
  <diagram id="prtHgNgQTEPvFCAcTncT" name="Page-1">
    <mxGraphModel dx="1804" dy="517" grid="1" gridSize="10" guides="1" tooltips="1" connect="1" arrows="1" fold="1" page="1" pageScale="1" pageWidth="827" pageHeight="1169" math="0" shadow="0">
      <root>
        <mxCell id="0" />
        <mxCell id="1" parent="0" />
        <mxCell id="dNxyNK7c78bLwvsdeMH5-11" value="Orgchart" style="swimlane;html=1;startSize=20;horizontal=1;containerType=tree;glass=0;" parent="1" vertex="1">
          <mxGeometry x="-430" y="80" width="1400" height="790" as="geometry" />
        </mxCell>
        <UserObject label="" name="Tessa Miller" position="CFO" location="Office 1" email="me@example.com" placeholders="1" link="https://www.draw.io" id="dNxyNK7c78bLwvsdeMH5-12">
          <mxCell style="label;image=https://cdn3.iconfinder.com/data/icons/user-avatars-1/512/users-3-128.png;whiteSpace=wrap;html=1;rounded=0;glass=0;treeMoving=1;treeFolding=1;" parent="dNxyNK7c78bLwvsdeMH5-11" vertex="1">
            <mxGeometry x="500" y="40" width="180" height="70" as="geometry" />
          </mxCell>
        </UserObject>
        <mxCell id="dNxyNK7c78bLwvsdeMH5-13" value="" style="endArrow=blockThin;endFill=1;fontSize=11;edgeStyle=elbowEdgeStyle;elbow=vertical;rounded=0;" parent="dNxyNK7c78bLwvsdeMH5-11" source="dNxyNK7c78bLwvsdeMH5-12" edge="1">
          <mxGeometry relative="1" as="geometry">
            <mxPoint x="370" y="170" as="targetPoint" />
          </mxGeometry>
        </mxCell>
        <UserObject label="Phu Sein&lt;br&gt;Translator(Chinese)" name="Edward Morrison" position="Brand Manager" location="Office 2" email="me@example.com" placeholders="1" link="https://www.draw.io" id="dNxyNK7c78bLwvsdeMH5-14">
          <mxCell style="label;image=https://cdn3.iconfinder.com/data/icons/user-avatars-1/512/users-10-3-128.png;whiteSpace=wrap;html=1;rounded=0;glass=0;treeFolding=1;treeMoving=1;" parent="dNxyNK7c78bLwvsdeMH5-11" vertex="1">
            <mxGeometry x="40" y="170" width="180" height="80" as="geometry" />
          </mxCell>
        </UserObject>
        <mxCell id="dNxyNK7c78bLwvsdeMH5-15" value="" style="endArrow=blockThin;endFill=1;fontSize=11;edgeStyle=elbowEdgeStyle;elbow=vertical;rounded=0;" parent="dNxyNK7c78bLwvsdeMH5-11" source="dNxyNK7c78bLwvsdeMH5-12" target="dNxyNK7c78bLwvsdeMH5-16" edge="1">
          <mxGeometry relative="1" as="geometry" />
        </mxCell>
        <UserObject label="Kyaw Kyaw Lin&lt;br&gt;(Video Editing)&lt;br&gt;(IT)" name="Evan Valet" position="HR Director" location="Office 4" email="me@example.com" placeholders="1" link="https://www.draw.io" id="dNxyNK7c78bLwvsdeMH5-16">
          <mxCell style="label;image=https://cdn3.iconfinder.com/data/icons/user-avatars-1/512/users-10-3-128.png;whiteSpace=wrap;html=1;rounded=0;glass=0;treeFolding=1;treeMoving=1;" parent="dNxyNK7c78bLwvsdeMH5-11" vertex="1">
            <mxGeometry x="500" y="170" width="180" height="80" as="geometry" />
          </mxCell>
        </UserObject>
        <mxCell id="dNxyNK7c78bLwvsdeMH5-17" value="" style="endArrow=blockThin;endFill=1;fontSize=11;edgeStyle=elbowEdgeStyle;elbow=vertical;rounded=0;" parent="dNxyNK7c78bLwvsdeMH5-11" source="dNxyNK7c78bLwvsdeMH5-12" target="dNxyNK7c78bLwvsdeMH5-18" edge="1">
          <mxGeometry relative="1" as="geometry" />
        </mxCell>
        <UserObject label="%name%&lt;br&gt;Translator(Korea)&lt;br&gt;(Sport News)" name="Alison Donovan" position="System Admin" location="Office 3" email="me@example.com" placeholders="1" link="https://www.draw.io" id="dNxyNK7c78bLwvsdeMH5-18">
          <mxCell style="label;image=https://cdn3.iconfinder.com/data/icons/user-avatars-1/512/users-3-128.png;whiteSpace=wrap;html=1;rounded=0;glass=0;" parent="dNxyNK7c78bLwvsdeMH5-11" vertex="1">
            <mxGeometry x="730" y="170" width="180" height="80" as="geometry" />
          </mxCell>
        </UserObject>
        <UserObject label="Alison Donovan&lt;br&gt;&lt;font color=&quot;#808080&quot;&gt;&lt;i&gt;Designer&lt;/i&gt;&lt;/font&gt;&lt;br&gt;Translator(Sport News)" name="Alison Donovan" position="System Admin" location="Office 3" email="me@example.com" placeholders="1" link="https://www.draw.io" id="ZOE4UzrF-FN9SDPvG4vY-1">
          <mxCell style="label;image=https://cdn3.iconfinder.com/data/icons/user-avatars-1/512/users-3-128.png;whiteSpace=wrap;html=1;rounded=0;glass=0;" vertex="1" parent="dNxyNK7c78bLwvsdeMH5-11">
            <mxGeometry x="950" y="170" width="180" height="80" as="geometry" />
          </mxCell>
        </UserObject>
        <mxCell id="ZOE4UzrF-FN9SDPvG4vY-2" value="" style="endArrow=blockThin;endFill=1;fontSize=11;edgeStyle=elbowEdgeStyle;elbow=vertical;rounded=0;exitX=0.5;exitY=1;exitDx=0;exitDy=0;" edge="1" parent="dNxyNK7c78bLwvsdeMH5-11" source="dNxyNK7c78bLwvsdeMH5-12">
          <mxGeometry relative="1" as="geometry">
            <mxPoint x="820" y="110" as="sourcePoint" />
            <mxPoint x="1050" y="170" as="targetPoint" />
          </mxGeometry>
        </mxCell>
        <UserObject label="Sanda Ye Hline&lt;br&gt;(Video Editing)&lt;br&gt;(IT)" name="Edward Morrison" position="Brand Manager" location="Office 2" email="me@example.com" placeholders="1" link="https://www.draw.io" id="ZOE4UzrF-FN9SDPvG4vY-3">
          <mxCell style="label;image=https://cdn3.iconfinder.com/data/icons/user-avatars-1/512/users-10-3-128.png;whiteSpace=wrap;html=1;rounded=0;glass=0;treeFolding=1;treeMoving=1;" vertex="1" parent="dNxyNK7c78bLwvsdeMH5-11">
            <mxGeometry x="290" y="170" width="180" height="80" as="geometry" />
          </mxCell>
        </UserObject>
        <mxCell id="ZOE4UzrF-FN9SDPvG4vY-5" value="" style="endArrow=blockThin;endFill=1;fontSize=11;edgeStyle=elbowEdgeStyle;elbow=vertical;rounded=0;exitX=0.5;exitY=1;exitDx=0;exitDy=0;" edge="1" parent="dNxyNK7c78bLwvsdeMH5-11" source="dNxyNK7c78bLwvsdeMH5-12">
          <mxGeometry relative="1" as="geometry">
            <mxPoint x="330" y="110" as="sourcePoint" />
            <mxPoint x="110" y="170" as="targetPoint" />
          </mxGeometry>
        </mxCell>
      </root>
    </mxGraphModel>
  </diagram>
</mxfile>
